<?xml version="1.0" standalone="no"?>
<!DOCTYPE svg PUBLIC "-//W3C//DTD SVG 20010904//EN"
 "http://www.w3.org/TR/2001/REC-SVG-20010904/DTD/svg10.dtd">
<svg version="1.0" xmlns="http://www.w3.org/2000/svg"
 width="2376.000000pt" height="2376.000000pt" viewBox="0 0 2376.000000 2376.000000"
 preserveAspectRatio="xMidYMid meet">
<metadata>
Created by potrace 1.14, written by Peter Selinger 2001-2017
</metadata>
<g transform="translate(0.000000,2376.000000) scale(0.100000,-0.100000)"
fill="#000000" stroke="none">
<path d="M18765 21928 c-11 -6 -33 -27 -49 -45 -16 -19 -82 -78 -145 -131 -64
-53 -121 -101 -127 -107 -6 -5 -29 -23 -50 -40 -21 -16 -61 -48 -89 -70 -27
-22 -79 -63 -115 -90 -36 -27 -69 -53 -75 -58 -73 -59 -447 -319 -595 -413
-84 -53 -126 -79 -145 -90 -11 -6 -57 -34 -103 -62 -46 -29 -85 -52 -88 -52
-2 0 -21 -11 -42 -24 -20 -12 -64 -38 -97 -55 -33 -18 -96 -53 -140 -77 -79
-44 -683 -345 -800 -399 -365 -167 -992 -431 -1355 -569 -97 -37 -567 -216
-740 -281 -63 -24 -250 -94 -415 -155 -373 -139 -1071 -401 -1185 -445 -47
-18 -116 -45 -155 -60 -38 -14 -79 -30 -90 -35 -11 -5 -103 -41 -205 -80 -102
-39 -198 -78 -215 -85 -16 -7 -142 -59 -280 -115 -137 -57 -331 -139 -430
-182 -174 -77 -215 -96 -430 -196 -182 -85 -685 -341 -710 -362 -8 -7 -15 -10
-15 -6 0 3 -17 -4 -37 -18 -21 -13 -101 -59 -177 -102 -163 -93 -164 -93 -281
-163 -85 -51 -412 -266 -500 -328 -123 -86 -181 -128 -185 -133 -3 -3 -21 -17
-40 -30 -19 -13 -49 -35 -66 -49 -16 -14 -45 -37 -64 -51 -34 -26 -322 -263
-351 -290 -9 -8 -56 -51 -105 -95 -165 -148 -542 -533 -619 -632 -5 -7 -21
-25 -35 -41 -32 -35 -80 -94 -170 -207 -39 -49 -79 -99 -88 -110 -156 -192
-439 -627 -622 -960 -79 -143 -253 -505 -325 -675 -42 -102 -81 -194 -86 -205
-70 -162 -230 -641 -300 -900 -31 -112 -116 -457 -123 -495 -4 -19 -8 -39 -10
-45 -4 -15 -15 -66 -20 -95 -3 -14 -14 -70 -25 -125 -11 -55 -22 -113 -25
-130 -18 -98 -26 -144 -31 -180 -3 -22 -10 -62 -15 -90 -5 -27 -12 -72 -15
-100 -4 -27 -8 -57 -10 -65 -2 -8 -7 -40 -10 -70 -3 -30 -11 -84 -16 -120 -6
-36 -12 -90 -15 -120 -3 -30 -6 -66 -9 -80 -2 -14 -7 -56 -10 -95 -3 -38 -8
-88 -11 -109 -3 -22 -7 -62 -9 -90 -7 -90 -16 -210 -20 -256 -4 -45 -16 -235
-20 -320 -6 -103 -18 -498 -17 -540 3 -109 33 -171 103 -216 34 -21 130 -48
249 -70 14 -3 53 -11 88 -19 34 -8 74 -17 90 -20 39 -7 59 -11 132 -28 36 -8
81 -18 100 -21 19 -3 46 -8 60 -11 52 -12 126 -26 160 -31 19 -3 42 -7 50 -9
8 -3 35 -7 60 -10 25 -3 90 -12 145 -20 117 -16 168 -22 250 -30 33 -3 71 -8
85 -10 43 -7 192 -19 380 -30 63 -4 140 -9 170 -11 85 -5 603 -5 715 0 135 7
282 16 325 21 19 2 69 7 110 10 41 4 86 8 100 10 14 2 50 7 80 10 30 3 66 8
80 10 14 2 61 9 106 15 44 6 89 12 100 14 10 2 39 7 64 11 60 10 68 11 190 36
58 11 119 23 135 25 57 10 420 102 525 134 58 17 112 33 120 35 56 13 456 153
525 184 11 5 94 39 185 76 390 159 886 407 1210 605 8 5 76 46 150 92 332 202
781 522 1055 750 11 9 54 44 95 78 117 97 241 204 395 344 127 115 633 621
745 745 47 51 90 99 96 105 13 14 152 172 220 252 42 48 133 156 253 299 45
55 263 328 306 385 27 36 52 67 55 70 3 3 24 30 45 60 22 30 45 62 52 70 30
37 126 168 230 315 62 88 117 165 122 171 64 78 512 778 646 1009 12 22 46 81
75 130 29 50 66 115 83 145 16 30 33 60 37 65 11 15 93 166 193 355 63 119
286 565 325 651 16 35 45 98 65 139 19 41 63 138 97 215 34 77 68 154 75 170
191 432 492 1241 632 1700 121 397 198 665 248 865 14 58 30 119 36 135 17 53
140 577 173 735 3 14 8 36 11 50 3 14 8 36 11 50 2 14 11 57 20 95 8 39 16 80
19 93 2 13 6 31 9 40 3 9 7 34 11 56 3 21 7 41 9 45 2 3 7 28 10 55 4 27 9 52
11 56 2 3 6 24 9 46 7 42 12 73 21 114 9 43 13 63 19 115 4 28 13 88 21 135 7
47 16 111 20 144 4 32 8 68 10 80 2 11 7 46 10 76 3 30 7 69 9 85 6 42 18 228
20 300 l1 60 -40 2 c-22 2 -49 -2 -60 -9z m-1054 -1563 c47 -25 54 -57 25
-121 -21 -45 -47 -128 -61 -194 -17 -80 -89 -308 -144 -454 -53 -139 -176
-426 -211 -487 -5 -10 -39 -75 -76 -145 -36 -70 -106 -196 -153 -278 -107
-186 -114 -197 -124 -210 -13 -18 -146 -230 -154 -246 -9 -18 -253 -382 -321
-480 -92 -131 -389 -539 -419 -575 -4 -5 -55 -71 -113 -145 -57 -74 -106 -137
-109 -140 -4 -3 -62 -75 -131 -160 -68 -85 -129 -160 -135 -166 -5 -7 -28 -34
-51 -60 -155 -185 -328 -383 -414 -475 -14 -15 -38 -42 -54 -60 -281 -324
-1098 -1136 -1490 -1480 -21 -19 -48 -43 -60 -55 -94 -94 -794 -691 -1031
-879 -27 -22 -52 -42 -55 -45 -3 -3 -45 -37 -94 -75 -49 -39 -96 -77 -105 -85
-9 -8 -35 -28 -56 -44 -22 -17 -42 -33 -45 -36 -8 -10 -342 -266 -530 -407
-159 -119 -525 -383 -682 -492 -158 -109 -339 -231 -344 -231 -3 0 -29 -18
-59 -40 -30 -22 -56 -40 -59 -40 -2 0 -40 -23 -83 -51 -257 -169 -676 -423
-973 -588 -41 -23 -82 -46 -90 -51 -52 -33 -453 -241 -655 -340 -596 -293
-949 -436 -1470 -596 -49 -15 -94 -29 -100 -30 -5 -2 -53 -15 -105 -29 -52
-15 -102 -29 -110 -31 -8 -2 -76 -20 -150 -40 -74 -19 -142 -37 -150 -39 -8
-2 -64 -15 -124 -29 -59 -14 -120 -28 -135 -31 -14 -3 -37 -7 -51 -11 -14 -3
-57 -6 -97 -6 -133 -1 -158 45 -158 282 1 140 11 387 20 465 2 17 6 62 10 100
17 185 33 329 40 355 2 8 7 40 10 70 4 30 20 129 35 220 28 160 31 176 44 230
3 14 8 36 10 50 3 14 7 36 11 50 3 14 7 34 9 45 51 258 238 849 351 1110 7 17
39 91 71 165 71 166 226 473 324 640 40 69 79 136 87 150 15 26 21 37 87 141
75 120 234 346 338 484 36 47 188 237 212 266 17 19 42 49 56 65 197 235 540
584 785 799 37 33 73 65 80 72 14 13 139 119 210 178 26 22 53 45 59 50 6 6
63 51 126 101 383 302 747 556 1193 831 137 84 250 153 252 153 2 0 39 21 82
46 127 76 319 181 593 326 119 63 505 257 625 313 55 26 141 66 190 90 339
159 948 425 1460 635 110 45 214 88 230 95 45 20 786 322 900 366 55 22 109
44 120 49 11 5 146 59 300 120 154 61 289 114 300 119 11 5 126 51 255 101
129 51 249 98 265 105 17 7 134 54 260 103 423 166 1020 402 1040 412 11 5
121 49 245 99 124 49 252 101 285 115 70 30 95 32 136 11z"/>
<path d="M17458 12935 c-2 -2 -23 -6 -48 -9 -25 -3 -70 -13 -100 -22 -55 -17
-55 -17 -25 -26 34 -11 50 -17 117 -47 26 -12 51 -21 54 -21 4 0 73 -25 153
-56 80 -31 153 -57 161 -60 8 -2 206 -73 440 -159 234 -86 432 -158 440 -160
26 -6 441 -170 566 -223 229 -98 534 -237 574 -262 8 -6 26 -15 40 -20 14 -6
32 -14 40 -19 8 -5 60 -32 115 -59 425 -214 871 -501 1171 -753 153 -129 160
-135 305 -280 518 -521 861 -1133 945 -1689 3 -19 7 -46 9 -59 23 -135 23
-445 1 -581 -2 -14 -8 -47 -12 -75 -11 -72 -12 -77 -19 -110 -37 -182 -123
-433 -211 -624 -38 -80 -132 -255 -164 -306 -11 -16 -23 -37 -27 -45 -10 -20
-106 -162 -169 -247 -110 -149 -265 -324 -454 -513 -195 -195 -239 -237 -360
-340 -83 -71 -120 -103 -134 -115 -6 -6 -56 -46 -111 -90 -55 -44 -106 -86
-115 -92 -8 -7 -76 -58 -150 -113 -74 -55 -143 -105 -152 -112 -22 -17 -280
-190 -343 -231 -158 -101 -462 -285 -515 -311 -8 -4 -24 -12 -35 -19 -21 -12
-144 -80 -250 -137 -83 -45 -451 -229 -555 -278 -117 -55 -226 -105 -280 -130
-118 -53 -441 -191 -585 -249 -88 -35 -174 -71 -192 -79 -17 -8 -35 -14 -40
-14 -6 0 -23 -6 -39 -14 -16 -8 -135 -53 -264 -100 -129 -48 -255 -94 -280
-103 -25 -10 -49 -18 -55 -19 -5 -1 -62 -20 -125 -42 -286 -99 -780 -250
-1100 -336 -243 -64 -297 -78 -320 -82 -14 -3 -39 -9 -56 -15 -17 -5 -40 -11
-50 -13 -10 -2 -66 -15 -124 -29 -109 -26 -166 -39 -175 -38 -2 0 -19 -5 -37
-10 -38 -11 -475 -105 -528 -113 -19 -3 -91 -16 -160 -30 -69 -14 -141 -27
-160 -30 -19 -3 -46 -8 -60 -11 -13 -2 -42 -7 -65 -10 -22 -3 -47 -8 -55 -10
-8 -2 -33 -6 -55 -10 -22 -3 -78 -12 -125 -20 -47 -7 -103 -16 -125 -19 -22
-4 -51 -8 -65 -11 -14 -2 -45 -7 -70 -10 -25 -3 -56 -7 -70 -9 -14 -3 -47 -7
-75 -11 -51 -6 -58 -7 -185 -24 -102 -14 -144 -19 -215 -26 -33 -4 -71 -8 -85
-10 -14 -2 -59 -7 -100 -10 -41 -4 -93 -8 -115 -11 -22 -2 -71 -6 -110 -9 -38
-3 -92 -8 -120 -10 -27 -2 -97 -7 -155 -10 -58 -4 -127 -9 -155 -10 -426 -30
-1400 -24 -1925 10 -47 3 -128 8 -180 11 -52 3 -111 7 -130 9 -19 2 -75 7
-125 10 -49 4 -103 8 -120 10 -16 1 -66 6 -110 9 -44 4 -93 9 -110 11 -16 2
-66 6 -110 10 -44 3 -93 8 -110 10 -16 2 -61 6 -100 10 -38 3 -86 8 -105 10
-35 5 -82 10 -172 20 -27 3 -69 7 -95 10 -102 11 -183 21 -253 30 -14 2 -52 7
-85 11 -33 3 -68 8 -77 10 -9 1 -48 6 -85 9 -37 4 -70 9 -73 10 -3 2 -33 7
-65 10 -33 4 -67 8 -75 10 -22 4 -101 16 -130 20 -14 2 -45 6 -70 10 -25 4
-56 8 -70 10 -14 2 -106 17 -205 34 -99 17 -198 33 -220 36 -22 4 -47 8 -55
10 -8 2 -31 7 -50 10 -19 3 -57 10 -85 15 -75 15 -357 71 -380 76 -11 2 -31 6
-45 9 -14 3 -36 7 -50 10 -14 3 -34 8 -45 10 -58 12 -257 59 -385 90 -80 20
-152 37 -161 39 -258 63 -897 247 -1234 356 -204 66 -613 210 -680 239 -11 5
-85 35 -165 66 -343 136 -881 393 -1080 515 -49 30 -153 90 -156 90 -3 0 -65
38 -154 95 -69 44 -256 168 -305 203 -69 49 -278 204 -291 217 -6 5 -33 28
-60 50 -255 210 -504 463 -689 700 -192 245 -396 603 -499 875 -27 69 -52 134
-56 145 -38 94 -126 456 -146 595 -4 30 -9 64 -10 75 -13 92 -19 238 -18 450
0 253 5 340 30 565 3 30 7 71 9 91 5 53 17 162 20 179 2 8 6 49 10 90 3 41 9
84 12 95 4 14 -4 10 -27 -15 -79 -88 -296 -584 -366 -840 -65 -237 -98 -391
-119 -550 -3 -25 -8 -61 -10 -80 -24 -183 -25 -664 -1 -785 2 -11 7 -47 11
-80 4 -32 9 -68 11 -80 2 -11 6 -33 9 -50 13 -72 28 -146 47 -220 11 -44 22
-89 24 -99 2 -10 24 -82 50 -160 177 -538 478 -1038 899 -1491 208 -225 413
-419 615 -585 30 -25 64 -53 75 -63 27 -26 287 -223 355 -270 230 -161 461
-307 691 -437 231 -131 799 -410 835 -410 8 0 14 -3 14 -8 0 -4 15 -12 33 -18
17 -6 109 -43 202 -81 94 -38 208 -84 255 -102 47 -18 94 -36 105 -41 227 -94
1220 -403 1457 -454 12 -3 39 -9 58 -15 46 -12 258 -61 290 -67 14 -3 54 -12
90 -20 59 -14 122 -27 190 -40 14 -3 81 -16 150 -29 69 -14 139 -27 155 -30
17 -2 39 -7 50 -9 17 -3 110 -19 235 -40 14 -3 43 -7 65 -11 44 -6 83 -12 130
-20 28 -5 102 -16 200 -30 22 -3 51 -8 65 -10 14 -2 45 -7 70 -10 25 -3 77
-10 115 -15 39 -5 90 -12 115 -15 25 -3 61 -7 80 -10 19 -3 55 -7 80 -10 25
-3 61 -7 80 -10 19 -2 60 -7 90 -10 30 -4 66 -8 80 -10 23 -4 47 -6 190 -21
30 -3 71 -7 90 -10 40 -6 86 -10 185 -19 39 -3 90 -8 115 -11 25 -2 74 -6 110
-9 36 -2 92 -7 125 -10 189 -16 382 -28 655 -40 540 -25 1443 -25 1980 0 279
13 331 16 380 20 30 2 102 7 160 10 58 3 130 8 160 10 30 2 93 7 140 10 47 3
103 8 125 10 22 2 81 7 130 11 50 3 97 8 105 9 8 2 58 6 110 10 52 3 106 8
120 10 14 2 59 7 100 10 41 3 86 8 100 10 14 2 54 6 90 10 36 3 81 8 100 10
34 4 61 7 185 20 33 4 71 8 85 10 14 2 50 6 80 10 30 3 71 8 90 10 19 3 53 7
75 9 22 3 78 10 125 16 47 6 103 14 125 16 22 3 54 7 70 9 43 7 85 12 220 30
121 16 159 22 205 30 14 2 50 7 80 10 30 4 73 10 95 15 22 4 67 11 100 15 33
3 78 10 100 15 22 4 63 11 90 15 54 7 284 43 325 51 14 3 41 7 60 10 19 2 44
6 55 8 25 5 82 15 115 20 170 28 354 66 695 142 1015 229 1970 562 3050 1064
210 98 414 196 470 227 17 9 37 20 45 25 8 4 26 13 40 18 14 6 61 30 105 53
44 24 130 69 190 102 493 262 1052 619 1464 935 53 40 355 283 361 289 3 3 41
38 85 76 138 121 146 128 238 215 241 228 481 482 618 657 101 128 110 141
179 242 305 446 498 939 545 1391 3 30 8 69 10 85 5 37 6 396 1 448 -4 35 -11
91 -22 162 -27 175 -93 434 -139 540 -7 17 -23 57 -35 90 -26 68 -132 284
-179 363 -17 29 -31 55 -31 57 0 12 -234 351 -260 375 -4 4 -29 34 -105 127
-66 82 -329 349 -495 503 -142 132 -121 114 -215 194 -111 95 -123 105 -185
156 -30 24 -62 50 -70 57 -8 7 -44 35 -80 63 -36 27 -69 53 -75 58 -241 194
-770 539 -1140 744 -192 106 -644 338 -659 338 -2 0 -53 23 -113 51 -59 28
-166 75 -238 106 -71 30 -143 61 -160 69 -47 21 -316 126 -465 182 -233 86
-297 109 -580 201 -673 220 -720 232 -912 236 -70 1 -128 1 -130 0z"/>
<path d="M18188 10288 c-64 -47 -87 -77 -158 -213 -271 -516 -648 -985 -1141
-1420 -26 -23 -274 -221 -354 -283 -49 -38 -393 -272 -400 -272 -2 0 -46 -26
-97 -59 -51 -32 -111 -68 -133 -80 -22 -12 -53 -30 -70 -39 -141 -85 -542
-287 -715 -362 -41 -18 -95 -41 -119 -52 -72 -32 -311 -129 -396 -160 -146
-53 -280 -99 -298 -103 -9 -2 -20 -6 -25 -9 -36 -22 -600 -178 -872 -241 -20
-5 -414 -84 -448 -90 -15 -3 -36 -7 -47 -9 -11 -2 -40 -7 -65 -10 -25 -3 -55
-8 -66 -10 -12 -2 -39 -7 -60 -11 -22 -3 -50 -7 -64 -10 -30 -5 -168 -23 -230
-30 -25 -3 -56 -7 -69 -10 -13 -2 -56 -7 -95 -10 -39 -3 -78 -7 -86 -10 -8 -2
-49 -6 -90 -10 -41 -3 -91 -8 -110 -10 -19 -2 -69 -7 -110 -10 -41 -3 -100 -7
-130 -10 -58 -4 -218 -15 -310 -20 -202 -12 -484 -18 -790 -18 -407 0 -621 7
-920 29 -47 4 -107 8 -135 9 -27 2 -79 6 -115 9 -36 4 -86 9 -112 11 -27 3
-69 7 -95 10 -27 3 -70 7 -98 10 -27 3 -63 7 -80 9 -16 2 -55 7 -86 10 -31 4
-65 8 -75 10 -11 2 -44 7 -75 10 -31 4 -65 8 -75 10 -11 2 -41 7 -69 10 -27 4
-75 11 -105 16 -30 5 -68 12 -85 14 -49 8 -208 36 -235 41 -14 3 -50 9 -80 15
-71 13 -94 18 -155 30 -27 6 -60 12 -73 15 -13 2 -31 6 -40 9 -9 3 -31 8 -48
11 -18 3 -81 17 -140 31 -60 14 -118 28 -130 30 -25 5 -312 79 -364 94 -19 5
-107 30 -194 55 -265 77 -580 182 -916 308 -180 68 -524 212 -683 286 -49 22
-90 41 -92 41 -17 0 -406 198 -503 257 -226 136 -347 229 -522 403 -321 318
-538 745 -616 1206 -21 126 -38 209 -56 269 -23 81 -78 204 -107 240 l-19 25
-35 -147 c-20 -82 -38 -166 -41 -187 -4 -21 -8 -48 -11 -60 -5 -21 -7 -42 -22
-181 -15 -132 -6 -534 11 -564 2 -3 7 -28 10 -56 13 -93 71 -309 105 -390 5
-11 19 -45 31 -75 53 -132 242 -470 279 -500 3 -3 26 -32 50 -65 203 -277 540
-569 926 -802 537 -326 1235 -623 1905 -812 80 -23 168 -48 195 -56 28 -8 61
-17 75 -19 14 -3 63 -14 110 -26 111 -29 101 -26 210 -50 198 -43 422 -87 545
-105 11 -2 35 -6 53 -9 66 -12 184 -31 262 -41 25 -3 52 -8 60 -10 8 -2 44 -7
80 -10 36 -3 72 -8 80 -10 8 -2 44 -7 80 -10 36 -3 76 -7 90 -10 14 -2 54 -7
90 -10 36 -3 81 -8 100 -10 19 -2 69 -7 110 -10 41 -3 91 -8 110 -10 71 -8
388 -30 585 -40 357 -19 1099 -25 1430 -11 307 13 329 14 426 21 52 3 121 8
154 11 72 4 173 13 235 19 25 3 74 7 110 11 36 3 81 7 100 10 19 2 60 6 90 9
30 3 69 7 85 10 17 2 53 7 80 10 28 3 66 8 85 11 19 3 53 7 75 9 41 5 105 15
140 21 11 2 40 6 65 9 25 3 57 8 73 10 15 3 42 7 60 10 17 3 43 7 57 10 14 3
39 7 55 9 47 8 207 35 235 41 14 3 39 8 55 11 17 3 48 9 70 14 22 5 54 11 70
14 102 19 399 87 599 137 1007 254 1950 619 2601 1008 769 459 1367 1096 1620
1726 5 11 9 22 10 25 1 3 7 19 14 35 7 17 15 39 17 50 2 11 8 31 14 45 14 36
58 219 64 265 3 22 9 67 13 100 10 76 10 369 1 454 -11 99 -39 241 -47 241 -4
0 -28 -15 -53 -32z"/>
<path d="M20701 9797 c-38 -13 -53 -35 -144 -207 -141 -269 -225 -412 -373
-635 -95 -144 -247 -358 -306 -430 -9 -11 -51 -63 -94 -115 -42 -52 -79 -97
-83 -100 -3 -3 -21 -23 -40 -45 -185 -220 -496 -526 -761 -749 -129 -108 -134
-113 -190 -156 -25 -19 -47 -37 -50 -40 -10 -11 -277 -208 -390 -287 -210
-147 -467 -311 -705 -448 -409 -236 -856 -452 -1305 -629 -107 -43 -204 -82
-215 -86 -25 -11 -310 -112 -425 -150 -153 -51 -402 -127 -555 -169 -82 -23
-163 -46 -180 -51 -16 -5 -42 -11 -57 -14 -15 -2 -31 -7 -36 -10 -5 -3 -22 -8
-39 -11 -17 -2 -73 -16 -124 -30 -52 -13 -105 -26 -119 -29 -14 -2 -56 -11
-95 -21 -62 -14 -276 -60 -330 -71 -11 -2 -42 -8 -70 -14 -27 -6 -59 -12 -70
-14 -11 -2 -69 -13 -130 -24 -92 -18 -340 -60 -450 -78 -16 -2 -41 -6 -55 -9
-14 -2 -45 -7 -70 -10 -25 -3 -56 -8 -70 -10 -14 -2 -45 -7 -70 -10 -25 -4
-56 -8 -70 -10 -14 -2 -45 -7 -69 -10 -23 -3 -55 -7 -70 -9 -14 -2 -46 -7 -71
-10 -25 -3 -63 -8 -85 -11 -39 -5 -90 -10 -182 -20 -27 -3 -66 -7 -88 -10 -22
-2 -69 -7 -105 -10 -36 -3 -81 -8 -100 -10 -32 -4 -114 -10 -245 -20 -27 -2
-97 -6 -155 -10 -58 -4 -132 -8 -165 -10 -383 -27 -1272 -27 -1690 0 -38 2
-117 7 -175 10 -58 3 -125 8 -150 10 -25 3 -76 7 -115 10 -113 8 -187 15 -325
30 -19 2 -64 7 -100 10 -36 4 -92 10 -125 15 -33 5 -89 12 -125 15 -36 3 -72
8 -80 10 -8 2 -40 7 -70 10 -30 3 -95 12 -145 20 -49 8 -112 17 -140 20 -27 4
-57 8 -65 10 -8 2 -33 7 -55 10 -23 3 -52 7 -65 10 -14 3 -36 7 -50 9 -14 3
-41 8 -60 10 -19 3 -45 8 -56 10 -12 2 -37 7 -55 10 -29 5 -203 37 -279 52
-14 3 -79 16 -145 30 -66 14 -129 27 -140 29 -30 7 -114 25 -160 35 -22 5 -76
18 -120 29 -44 11 -91 22 -105 25 -14 2 -99 23 -190 46 -91 23 -172 43 -180
45 -8 2 -15 4 -15 5 0 1 -7 3 -16 5 -29 5 -311 85 -429 122 -449 137 -950 323
-1275 473 -33 15 -82 38 -110 50 -183 82 -604 305 -791 420 -38 24 -85 52
-104 64 -111 66 -414 274 -558 383 -404 306 -722 619 -986 970 -42 56 -76 106
-76 111 0 5 -9 17 -20 27 -11 10 -20 24 -20 31 0 7 -4 14 -8 16 -26 11 -292
511 -292 550 0 8 -4 18 -9 24 -21 23 -145 416 -166 527 -3 12 -7 33 -10 47 -7
32 -14 67 -20 103 -9 48 -51 121 -86 150 -18 15 -36 27 -39 27 -6 0 -18 -43
-36 -125 -44 -204 -73 -370 -99 -582 -12 -100 -18 -234 -17 -391 1 -197 8
-283 37 -468 48 -301 149 -584 303 -854 52 -90 184 -288 222 -334 10 -11 44
-52 75 -91 137 -169 363 -403 520 -540 44 -39 82 -72 85 -75 3 -3 48 -39 100
-80 52 -41 97 -77 100 -80 22 -26 370 -258 525 -350 441 -261 988 -505 1670
-742 230 -80 627 -210 700 -228 17 -5 68 -20 115 -34 47 -14 110 -32 140 -40
30 -8 91 -24 135 -36 44 -12 87 -23 95 -25 8 -2 35 -9 60 -16 25 -7 50 -13 55
-15 6 -1 51 -12 100 -24 50 -12 97 -23 105 -25 8 -2 85 -20 170 -40 136 -31
262 -59 325 -71 11 -2 76 -15 145 -29 69 -13 139 -27 155 -30 173 -32 248 -45
290 -51 28 -3 52 -8 55 -9 3 -2 26 -6 50 -10 25 -3 99 -15 165 -25 66 -11 138
-22 160 -25 23 -3 50 -7 60 -9 11 -2 47 -7 80 -11 32 -4 67 -8 76 -10 10 -2
75 -11 146 -19 70 -9 139 -18 153 -20 14 -3 54 -7 90 -11 36 -3 79 -8 95 -10
31 -4 90 -11 170 -20 25 -3 64 -7 87 -10 24 -3 66 -7 93 -10 28 -3 68 -7 90
-10 22 -2 67 -7 100 -10 74 -7 147 -14 200 -20 22 -2 72 -7 110 -10 39 -3 88
-8 110 -10 22 -3 76 -7 120 -10 44 -2 109 -7 145 -10 294 -23 476 -29 885 -30
343 0 489 4 770 20 155 9 290 18 426 30 53 5 102 9 244 20 33 3 76 7 95 9 19
3 64 8 100 11 36 4 76 8 90 10 14 2 52 6 85 10 33 3 76 8 95 10 43 6 90 12
200 25 47 6 97 13 111 15 14 3 43 7 64 10 73 9 120 16 135 20 8 2 39 7 69 10
30 4 63 9 75 11 12 2 40 7 62 10 23 2 53 7 65 9 13 3 38 7 54 10 17 3 41 7 55
10 14 3 41 7 60 10 35 5 74 13 220 40 41 8 89 17 105 20 17 3 50 10 75 15 25
5 60 12 78 15 101 16 594 131 902 210 45 12 213 58 260 72 30 9 60 18 66 19 7
1 81 23 165 49 85 26 161 48 169 50 25 5 485 160 620 208 229 81 602 226 710
275 25 11 99 44 165 72 187 81 465 216 600 290 28 15 77 42 110 60 49 26 305
177 379 223 49 30 355 236 372 250 10 9 57 44 104 79 47 34 94 70 105 80 11 9
67 55 125 103 251 207 579 534 733 730 4 6 32 42 63 80 65 82 224 320 282 420
91 160 182 355 255 550 61 161 148 492 171 650 4 22 9 54 11 70 11 70 13 85
20 151 4 38 9 85 12 104 7 48 12 613 6 673 -3 26 -8 47 -12 46 -3 0 -21 -5
-40 -12z"/>
</g>
</svg>
